<?xml version="1.0" encoding="UTF-8" standalone="no"?>
<svg
   width="400"
   height="344.17517"
   viewBox="0 0 400 344.17516"
   version="1.1"
   id="svg2"
   sodipodi:docname="decision.svg"
   inkscape:version="1.4.3 (0d15f75042, 2025-12-25)"
   xmlns:inkscape="http://www.inkscape.org/namespaces/inkscape"
   xmlns:sodipodi="http://sodipodi.sourceforge.net/DTD/sodipodi-0.dtd"
   xmlns="http://www.w3.org/2000/svg"
   xmlns:svg="http://www.w3.org/2000/svg">
  <defs
     id="defs2" />
  <sodipodi:namedview
     id="namedview2"
     pagecolor="#ffffff"
     bordercolor="#666666"
     borderopacity="1.0"
     inkscape:showpageshadow="2"
     inkscape:pageopacity="0.0"
     inkscape:pagecheckerboard="0"
     inkscape:deskcolor="#d1d1d1"
     inkscape:zoom="256"
     inkscape:cx="399.90039"
     inkscape:cy="343.17383"
     inkscape:window-width="2574"
     inkscape:window-height="1714"
     inkscape:window-x="0"
     inkscape:window-y="0"
     inkscape:window-maximized="1"
     inkscape:current-layer="svg2" />
  <g
     fill="none"
     stroke="currentColor"
     stroke-linecap="round"
     stroke-linejoin="round"
     stroke-width="1.5"
     color="currentColor"
     id="g2"
     style="fill:#ffffff;stroke:#ffffff"
     transform="matrix(18.603736,0,0,18.603736,-23.239998,-51.167783)">
    <path
       d="m 7,8.5 2.942,1.74 c 1.715,1.014 2.4,1.014 4.116,0 L 17,8.5"
       id="path1"
       style="fill:none;stroke:#ffffff" />
    <path
       d="m 2.016,13.476 c 0.065,3.065 0.098,4.598 1.229,5.733 1.131,1.136 2.705,1.175 5.854,1.254 1.94,0.05 3.862,0.05 5.802,0 3.149,-0.079 4.723,-0.118 5.854,-1.254 1.131,-1.135 1.164,-2.668 1.23,-5.733 0.02,-0.986 0.02,-1.966 0,-2.952 C 21.919,7.459 21.886,5.926 20.755,4.791 19.624,3.655 18.05,3.616 14.901,3.537 a 115,115 0 0 0 -5.802,0 C 5.95,3.616 4.376,3.655 3.245,4.791 2.114,5.926 2.081,7.459 2.015,10.524 a 69,69 0 0 0 0,2.952"
       id="path2"
       style="fill:none;stroke:#ffffff" />
  </g>
</svg>
