<?xml version="1.0" encoding="UTF-8" standalone="no"?>
<svg
   width="42.610683"
   height="42.60968"
   viewBox="0 0 42.610684 42.60968"
   version="1.1"
   id="svg1"
   sodipodi:docname="music.svg"
   inkscape:version="1.4.3 (0d15f75042, 2025-12-25)"
   xmlns:inkscape="http://www.inkscape.org/namespaces/inkscape"
   xmlns:sodipodi="http://sodipodi.sourceforge.net/DTD/sodipodi-0.dtd"
   xmlns="http://www.w3.org/2000/svg"
   xmlns:svg="http://www.w3.org/2000/svg">
  <defs
     id="defs1" />
  <sodipodi:namedview
     id="namedview1"
     pagecolor="#ffffff"
     bordercolor="#666666"
     borderopacity="1.0"
     inkscape:showpageshadow="2"
     inkscape:pageopacity="0.0"
     inkscape:pagecheckerboard="0"
     inkscape:deskcolor="#d1d1d1"
     inkscape:zoom="10.708333"
     inkscape:cx="-7.0505837"
     inkscape:cy="17.416343"
     inkscape:window-width="1546"
     inkscape:window-height="1014"
     inkscape:window-x="0"
     inkscape:window-y="0"
     inkscape:window-maximized="1"
     inkscape:current-layer="svg1" />
  <g
     fill="none"
     stroke="currentColor"
     stroke-linecap="round"
     stroke-linejoin="round"
     stroke-width="1.5"
     color="currentColor"
     id="g1"
     style="stroke:#ffffff"
     transform="matrix(1.9818902,0,0,1.9818456,-2.4773407,-2.477307)">
    <path
       d="M 2,13 C 2,9.7 2,8.05 2.879,7.025 3.757,6 5.172,6 8,6 h 8 c 2.828,0 4.243,0 5.121,1.025 C 21.999,8.05 22,9.7 22,13 c 0,3.3 0,4.95 -0.879,5.975 C 20.243,20 18.828,20 16,20 H 8 C 5.172,20 3.757,20 2.879,18.975 2.001,17.95 2,16.3 2,13 m 5,2 H 7.009 M 6,20 v 2 m 12,-2 v 2 M 5,6 19,2 M 9,11 H 6"
       id="path1"
       style="stroke:#ffffff" />
    <circle
       cx="15"
       cy="13"
       r="3"
       id="circle1"
       style="stroke:#ffffff" />
  </g>
</svg>
